<svg width="124" height="118" viewBox="0 0 124 118" fill="none" xmlns="http://www.w3.org/2000/svg">
<path d="M92.6176 0.385315H31.5026C14.6185 0.385315 0.882812 14.125 0.882812 31.0141V86.9419C0.882812 103.831 14.6185 117.571 31.5026 117.571H92.6176C109.502 117.571 123.237 103.831 123.237 86.9419V31.0141C123.237 14.125 109.502 0.385315 92.6176 0.385315ZM11.6845 31.0141C11.6845 20.0846 20.5763 11.1902 31.5026 11.1902H92.6176C103.544 11.1902 112.436 20.0846 112.436 31.0141V86.9419C112.436 97.8714 103.544 106.766 92.6176 106.766H31.5026C20.5763 106.766 11.6845 97.8714 11.6845 86.9419V31.0141Z" fill="white"/>
<path d="M62.0602 87.4611C77.7611 87.4611 90.5418 74.6835 90.5418 58.9711C90.5418 43.2587 77.768 30.4811 62.0602 30.4811C46.3525 30.4811 33.5786 43.2587 33.5786 58.9711C33.5786 74.6835 46.3525 87.4611 62.0602 87.4611ZM62.0602 41.2929C71.8101 41.2929 79.7401 49.2252 79.7401 58.978C79.7401 68.7308 71.8101 76.6631 62.0602 76.6631C52.3104 76.6631 44.3803 68.7308 44.3803 58.978C44.3803 49.2252 52.3104 41.2929 62.0602 41.2929Z" fill="white"/>
<path d="M93.1782 35.0841C97.4062 35.0841 100.852 31.644 100.852 27.4078C100.852 23.1717 97.4131 19.7316 93.1782 19.7316C88.9434 19.7316 85.5043 23.1717 85.5043 27.4078C85.5043 31.644 88.9434 35.0841 93.1782 35.0841Z" fill="white"/>
</svg>
