<svg width="95" height="109" viewBox="0 0 95 109" fill="none" xmlns="http://www.w3.org/2000/svg">
<path d="M94.6412 26.6647V45.3189C91.382 45.0005 87.1471 44.2599 82.4625 42.5433C76.3455 40.3006 71.7923 37.2343 68.8099 34.8601V72.5629L68.7338 72.4452C68.7822 73.1928 68.8099 73.9542 68.8099 74.7225C68.8099 93.4459 53.5796 108.688 34.8548 108.688C16.13 108.688 0.899719 93.4459 0.899719 74.7225C0.899719 55.9992 16.13 40.7505 34.8548 40.7505C36.6885 40.7505 38.4877 40.8959 40.2453 41.1797V59.5639C38.5569 58.9617 36.7439 58.6364 34.8548 58.6364C25.9906 58.6364 18.7734 65.8488 18.7734 74.7225C18.7734 83.5962 25.9906 90.8087 34.8548 90.8087C43.719 90.8087 50.9362 83.5893 50.9362 74.7225C50.9362 74.3903 50.9293 74.058 50.9086 73.7258V0.458923H69.5434C69.6126 2.03708 69.6749 3.62912 69.7441 5.20728C69.8686 8.31515 70.9758 11.2984 72.9064 13.7418C75.1691 16.6143 78.5113 19.9506 83.2029 22.6155C87.5969 25.1004 91.7211 26.1733 94.6412 26.6786V26.6647Z" fill="white"/>
</svg>
